<svg width="24" height="24" viewBox="0 0 24 24" fill="none" xmlns="http://www.w3.org/2000/svg">
<g clip-path="url(#clip0_27_270)">
<path fill-rule="evenodd" clip-rule="evenodd" d="M9.89676 0.084734C2.59991 1.15176 -1.80387 8.86078 0.71274 16.1614C1.57647 18.667 4.15352 21.9383 4.99492 21.5971C5.42949 21.421 5.25315 21.0814 4.09849 19.8716C2.40021 18.0921 1.55166 16.4609 1.08629 14.0804C-0.324267 6.86613 5.57838 0.117582 12.5036 1.02669C14.8742 1.3379 16.8837 2.37548 18.6966 4.22454C19.3411 4.88182 19.7526 5.19195 19.9009 5.13196C20.8669 4.74025 18.5426 2.34155 15.9889 1.09501C14.1798 0.211963 11.7651 -0.188385 9.89676 0.084734ZM20.7144 5.95779C18.8256 6.50449 18.5207 6.64838 18.5183 6.99398C18.5173 7.14419 18.7306 8.12655 18.9923 9.17693C19.365 10.673 19.5336 11.1182 19.7711 11.2325C19.9892 11.3375 20.4805 11.2639 21.5234 10.9705C23.7117 10.3544 23.9004 10.2782 23.9914 9.97546C24.1017 9.60842 23.1193 5.79232 22.8718 5.62653C22.5932 5.43978 22.4023 5.46908 20.7144 5.95779ZM6.57948 6.60396C6.31322 6.88526 6.33731 10.9489 6.60663 11.1851C6.74385 11.3054 7.48409 11.3488 8.90574 11.3196L10.5216 11.2866C10.7902 11.2811 11.0064 11.0644 11.0113 10.7958L11.0431 9.06157C11.0707 7.55965 11.0297 6.77761 10.9158 6.63265C10.6922 6.34812 6.84574 6.32267 6.57948 6.60396ZM12.549 6.63265C12.4351 6.77761 12.3941 7.55965 12.4217 9.06157L12.4535 10.7958C12.4584 11.0644 12.6746 11.2811 12.9432 11.2866L14.5591 11.3196C15.9807 11.3488 16.721 11.3054 16.8582 11.1851C17.1275 10.9489 17.1516 6.88526 16.8853 6.60396C16.6191 6.32267 12.7726 6.34812 12.549 6.63265ZM22.4674 6.97486C22.547 7.19585 22.7199 7.83061 22.8519 8.38564C23.1436 9.61213 23.1335 9.62431 21.5003 10.031C20.4265 10.2985 20.3582 10.2992 20.1826 10.0455C19.8858 9.6166 19.4628 7.52048 19.6362 7.33727C19.8155 7.14789 21.5257 6.60134 21.9908 6.58484C22.2198 6.57682 22.3677 6.69773 22.4674 6.97486ZM6.58313 12.923C6.33614 13.184 6.33278 17.2311 6.57948 17.4917C6.84574 17.773 10.6922 17.7476 10.9158 17.463C11.0297 17.3181 11.0707 16.536 11.0431 15.0341L11.0113 13.3C11.0064 13.0314 10.7901 12.8147 10.5214 12.8093L8.88224 12.7765C7.3568 12.7458 6.71188 12.787 6.58313 12.923ZM12.9955 12.8524C12.7154 12.8468 12.4881 13.0748 12.4846 13.3549C12.4689 14.5959 12.4054 17.3237 12.5645 17.4917C12.8081 17.7491 16.6417 17.7491 16.8853 17.4917C17.0822 17.2837 16.9631 14.5845 16.9102 13.4396C16.8974 13.1637 16.6652 12.9382 16.3891 12.9322C15.5355 12.9136 13.8719 12.8702 12.9955 12.8524ZM18.3794 13.0401C18.1829 13.4281 18.1829 16.9905 18.3794 17.3785C18.5179 17.6519 18.7034 17.6768 20.6128 17.6768C22.0378 17.6768 22.7505 17.6183 22.8703 17.4917C23.1139 17.2343 23.1139 13.1843 22.8703 12.9269C22.7505 12.8003 22.0378 12.7418 20.6128 12.7418C18.7034 12.7418 18.5179 12.7666 18.3794 13.0401ZM6.63364 19.1528C6.44737 19.3496 6.40431 19.7932 6.40431 21.5123C6.40431 22.9535 6.46022 23.6886 6.57948 23.8146C6.69874 23.9406 7.39504 23.9997 8.76079 23.9997C11.3038 23.9997 11.2215 24.086 11.2215 21.4207C11.2215 18.8622 11.2689 18.9105 8.75027 18.9105C7.22936 18.9105 6.81859 18.9575 6.63364 19.1528ZM12.6064 19.1243C12.3591 19.3153 12.3289 19.5588 12.3229 21.4124C12.3181 22.9516 12.368 23.5529 12.5166 23.7432C12.6856 23.9596 13.0295 23.9997 14.7135 23.9997C16.0718 23.9997 16.7662 23.9405 16.8853 23.8146C17.0052 23.688 17.0605 22.9351 17.0605 21.4296C17.0605 19.4125 17.037 19.2165 16.7782 19.0701C16.3369 18.8206 12.9424 18.8647 12.6064 19.1243ZM18.4699 19.1926C18.1226 19.5979 18.1125 23.3927 18.4576 23.7574C18.6439 23.9542 19.0639 23.9997 20.691 23.9997C22.0552 23.9997 22.751 23.9406 22.8703 23.8146C22.9896 23.6886 23.0455 22.9535 23.0455 21.5123C23.0455 19.7932 23.0024 19.3496 22.8161 19.1528C22.6306 18.9569 22.2159 18.9105 20.6491 18.9105C18.9573 18.9105 18.6808 18.9463 18.4699 19.1926Z" fill="url(#paint0_linear_27_270)"/>
</g>
<defs>
<linearGradient id="paint0_linear_27_270" x1="5.18212" y1="-5.70505e-08" x2="12.687" y2="23.8321" gradientUnits="userSpaceOnUse">
<stop stop-color="#006C9E"/>
<stop offset="1" stop-color="#014A6B"/>
</linearGradient>
<clipPath id="clip0_27_270">
<rect width="24" height="24" fill="white"/>
</clipPath>
</defs>
</svg>
