<svg width="24" height="24" viewBox="0 0 24 24" fill="none" xmlns="http://www.w3.org/2000/svg">
<g clip-path="url(#clip0_27_271)">
<path d="M23.8346 11.7072L22.8273 11.0834C22.8189 10.9854 22.8095 10.8875 22.799 10.7897L23.6646 9.98254C23.7073 9.94201 23.739 9.89131 23.7568 9.83519C23.7746 9.77906 23.7779 9.71934 23.7664 9.66159C23.7549 9.60385 23.7289 9.54996 23.6909 9.50498C23.6529 9.45999 23.6042 9.42537 23.5492 9.40435L22.4426 8.99021C22.4153 8.89448 22.3863 8.79923 22.3556 8.70452L23.046 7.7455C23.0806 7.69759 23.1024 7.64161 23.1092 7.58289C23.1161 7.52417 23.1078 7.46468 23.0852 7.41006C23.0626 7.35545 23.0264 7.30754 22.98 7.2709C22.9336 7.23425 22.8786 7.21009 22.8203 7.20072L21.654 7.01126C21.6085 6.92309 21.5616 6.83565 21.5133 6.74897L22.0033 5.67251C22.028 5.61884 22.0384 5.5597 22.0336 5.50081C22.0288 5.44192 22.0089 5.38526 21.9759 5.3363C21.9429 5.28725 21.8981 5.24737 21.8455 5.22043C21.7929 5.19348 21.7343 5.18034 21.6753 5.18225L20.4908 5.22386C20.43 5.14688 20.3676 5.07124 20.3035 4.99699L20.5758 3.8436C20.5892 3.78609 20.5878 3.72609 20.5716 3.66928C20.5554 3.61247 20.525 3.56074 20.4833 3.51896C20.4415 3.47718 20.3898 3.44674 20.333 3.43052C20.2763 3.4143 20.2163 3.41284 20.1588 3.42627L19.0056 3.69876C18.9303 3.6355 18.8544 3.57305 18.7778 3.51139L18.8193 2.3265C18.8221 2.26722 18.8096 2.20821 18.7829 2.1552C18.7562 2.1022 18.7162 2.05699 18.6669 2.02398C18.6176 1.99096 18.5606 1.97126 18.5015 1.96678C18.4423 1.96229 18.383 1.97318 18.3293 1.99839L17.2533 2.48955C17.1661 2.44194 17.0791 2.39432 16.991 2.34881L16.8007 1.18112C16.7908 1.12304 16.7663 1.06842 16.7296 1.02236C16.6929 0.976305 16.6451 0.940318 16.5907 0.917765C16.5362 0.895212 16.477 0.886829 16.4185 0.893401C16.3599 0.899974 16.304 0.921286 16.256 0.955345L15.2963 1.64607C15.2016 1.61573 15.1064 1.58705 15.0108 1.56005L14.5968 0.453078C14.5758 0.398054 14.5412 0.349257 14.4962 0.311245C14.4512 0.273233 14.3973 0.247248 14.3396 0.235717C14.2818 0.224187 14.2221 0.227488 14.166 0.245313C14.1099 0.263137 14.0592 0.294902 14.0187 0.33764L13.2118 1.20453C13.1141 1.1935 13.0162 1.18403 12.9182 1.17612L12.2946 0.168383C12.2636 0.118121 12.2202 0.0766294 12.1687 0.0478518C12.1171 0.0190742 12.059 0.00396729 12 0.00396729C11.9409 0.00396729 11.8829 0.0190742 11.8313 0.0478518C11.7797 0.0766294 11.7364 0.118121 11.7054 0.168383L11.0818 1.17602C10.9838 1.18444 10.8859 1.19391 10.7882 1.20443L9.98028 0.337539C9.94003 0.294277 9.88939 0.262038 9.83316 0.24389C9.77694 0.225742 9.717 0.222289 9.65907 0.23386C9.60113 0.245431 9.54712 0.271641 9.50217 0.309995C9.45723 0.348349 9.42284 0.397571 9.40228 0.452978L8.98818 1.55985C8.89198 1.58725 8.79788 1.61656 8.70268 1.64587L7.74398 0.955345C7.69592 0.921285 7.64 0.899975 7.58146 0.893408C7.52293 0.886842 7.46368 0.895233 7.40927 0.917797C7.35486 0.940361 7.30705 0.97636 7.27033 1.02243C7.23361 1.0685 7.20916 1.12313 7.19928 1.18122L7.00898 2.34881C6.92084 2.39433 6.83343 2.44125 6.74678 2.48955L5.67058 1.99839C5.61682 1.97378 5.55766 1.96336 5.49874 1.96811C5.43981 1.97285 5.38308 1.99262 5.33395 2.02551C5.28482 2.05841 5.24494 2.10334 5.21809 2.15603C5.19124 2.20872 5.17833 2.26741 5.18058 2.3265L5.22218 3.51139C5.1451 3.57244 5.06916 3.6349 4.99438 3.69876L3.84128 3.42617C3.78378 3.41272 3.7238 3.41417 3.66702 3.43038C3.61023 3.44659 3.55852 3.47701 3.51676 3.51878C3.47501 3.56055 3.44459 3.61228 3.42839 3.66908C3.41219 3.72589 3.41074 3.78588 3.42418 3.8434L3.69548 4.99689C3.63268 5.07191 3.56998 5.14784 3.50918 5.22376L2.32468 5.18225C2.26561 5.18 2.20694 5.19291 2.15427 5.21977C2.1016 5.24662 2.05668 5.28653 2.02379 5.33567C1.99091 5.38481 1.97115 5.44156 1.96641 5.50051C1.96166 5.55946 1.97208 5.61864 1.99668 5.67241L2.48768 6.74887C2.43937 6.83553 2.39246 6.92297 2.34698 7.01116L1.18078 7.20062C1.12273 7.21051 1.06813 7.23496 1.02209 7.27169C0.976051 7.30842 0.940072 7.35623 0.917518 7.41065C0.894963 7.46506 0.88657 7.52431 0.893122 7.58285C0.899673 7.6414 0.920957 7.69732 0.954982 7.7454L1.64538 8.70442C1.61532 8.79929 1.58631 8.89449 1.55838 8.99001L0.451882 9.40415C0.396869 9.42516 0.348078 9.45977 0.310068 9.50476C0.272058 9.54975 0.24607 9.60364 0.234534 9.6614C0.222997 9.71916 0.226288 9.77891 0.244099 9.83505C0.261911 9.8912 0.293661 9.94191 0.336382 9.98244L1.20198 10.7897C1.191 10.8874 1.18156 10.9853 1.17368 11.0833L0.166382 11.7071C0.115663 11.7378 0.073715 11.781 0.0445984 11.8326C0.0154819 11.8843 0.000183105 11.9425 0.000183105 12.0018C0.000183105 12.0611 0.0154819 12.1194 0.0445984 12.171C0.073715 12.2226 0.115663 12.2659 0.166382 12.2965L1.17368 12.9203C1.18168 13.0186 1.19188 13.1168 1.20198 13.214L0.336382 14.0222C0.293136 14.0625 0.260912 14.1131 0.242777 14.1694C0.224642 14.2256 0.221199 14.2856 0.232776 14.3435C0.244354 14.4015 0.270566 14.4555 0.308918 14.5005C0.34727 14.5454 0.396486 14.5798 0.451882 14.6004L1.55838 15.0146C1.58568 15.1108 1.61508 15.2061 1.64538 15.3002L0.954982 16.2592C0.92004 16.3071 0.898023 16.3632 0.891051 16.4221C0.88408 16.481 0.892388 16.5407 0.915177 16.5955C0.937966 16.6502 0.974467 16.6982 1.02116 16.7347C1.06786 16.7713 1.12317 16.7952 1.18178 16.8041L2.34798 16.9935C2.39358 17.0815 2.44018 17.1686 2.48878 17.2558L1.99778 18.3323C1.97318 18.3861 1.96276 18.4453 1.96751 18.5042C1.97225 18.5632 1.99201 18.6199 2.02489 18.6691C2.05778 18.7182 2.1027 18.7581 2.15537 18.785C2.20804 18.8118 2.26671 18.8247 2.32578 18.8225L3.50918 18.781C3.57098 18.8579 3.63268 18.9338 3.69648 19.0087L3.42518 20.1632C3.41166 20.2207 3.41306 20.2807 3.42925 20.3375C3.44544 20.3943 3.47587 20.446 3.51767 20.4877C3.55947 20.5294 3.61124 20.5598 3.66805 20.5758C3.72487 20.5919 3.78484 20.5931 3.84228 20.5795L4.99528 20.3081C5.07028 20.3719 5.14628 20.4336 5.22318 20.4944L5.18168 21.6793C5.17904 21.7385 5.19171 21.7974 5.21848 21.8503C5.24525 21.9031 5.2852 21.9482 5.33448 21.9811C5.38375 22.014 5.44068 22.0336 5.49975 22.038C5.55883 22.0425 5.61805 22.0316 5.67168 22.0064L6.74778 21.5163C6.83478 21.5649 6.92188 21.6114 7.00998 21.657L7.20028 22.8236C7.21002 22.8818 7.23436 22.9365 7.27103 22.9827C7.30769 23.0289 7.35548 23.065 7.40992 23.0877C7.46435 23.1104 7.52365 23.1189 7.58225 23.1124C7.64086 23.1058 7.69685 23.0846 7.74498 23.0505L8.70368 22.3599C8.79838 22.3904 8.89356 22.4194 8.98918 22.4469L9.40318 23.5539C9.4235 23.6095 9.45779 23.6589 9.50273 23.6975C9.54768 23.736 9.60177 23.7624 9.65983 23.7739C9.71788 23.7855 9.77794 23.782 9.83424 23.7637C9.89053 23.7453 9.94117 23.7128 9.98128 23.6693L10.7892 22.8034C10.8864 22.8145 10.9846 22.8237 11.0828 22.8328L11.7064 23.8404C11.7376 23.8905 11.781 23.9317 11.8325 23.9603C11.8841 23.989 11.942 24.004 12.001 24.004C12.0599 24.004 12.1179 23.989 12.1694 23.9603C12.221 23.9317 12.2644 23.8905 12.2956 23.8404L12.9192 22.8328C13.0174 22.8237 13.1156 22.8145 13.2128 22.8034L14.0197 23.6693C14.0602 23.712 14.1109 23.7438 14.167 23.7616C14.2231 23.7794 14.2828 23.7827 14.3405 23.7711C14.3983 23.7596 14.4521 23.7336 14.4971 23.6956C14.5421 23.6576 14.5767 23.6089 14.5977 23.5539L15.0118 22.4469C15.1075 22.4196 15.2026 22.3905 15.2973 22.3599L16.256 23.0505C16.3039 23.0854 16.36 23.1075 16.4188 23.1144C16.4777 23.1214 16.5374 23.1131 16.5921 23.0903C16.6469 23.0675 16.6948 23.031 16.7313 22.9843C16.7679 22.9376 16.7917 22.8822 16.8007 22.8236L16.991 21.657C17.079 21.6114 17.1661 21.5639 17.2532 21.5163L18.3294 22.0064C18.3831 22.0307 18.4421 22.0409 18.5008 22.0361C18.5595 22.0312 18.6161 22.0115 18.6651 21.9788C18.7141 21.9461 18.754 21.9014 18.781 21.849C18.808 21.7967 18.8212 21.7382 18.8194 21.6793L18.7779 20.4944C18.8548 20.434 18.9304 20.3718 19.0046 20.3081L20.1577 20.5795C20.2151 20.5928 20.2749 20.5914 20.3316 20.5752C20.3883 20.5591 20.4399 20.5287 20.4816 20.4871C20.5233 20.4455 20.5538 20.3939 20.5701 20.3373C20.5864 20.2806 20.588 20.2208 20.5748 20.1633L20.3035 19.0087C20.3663 18.9338 20.429 18.8579 20.4898 18.7809L21.6743 18.8224C21.7335 18.8252 21.7925 18.8127 21.8455 18.786C21.8985 18.7593 21.9437 18.7193 21.9767 18.67C22.0097 18.6207 22.0294 18.5636 22.0339 18.5045C22.0384 18.4453 22.0275 18.3859 22.0023 18.3322L21.5123 17.2559C21.5598 17.1686 21.6074 17.0816 21.653 16.9935L22.8192 16.8041C22.8773 16.7942 22.9319 16.7698 22.9779 16.733C23.024 16.6963 23.06 16.6485 23.0825 16.5941C23.1051 16.5396 23.1135 16.4804 23.1069 16.4218C23.1003 16.3632 23.079 16.3073 23.045 16.2592L22.3546 15.3002L22.4416 15.0146L23.5482 14.6005C23.6036 14.5799 23.6528 14.5455 23.6912 14.5006C23.7295 14.4556 23.7557 14.4015 23.7673 14.3436C23.7789 14.2856 23.7754 14.2256 23.7573 14.1694C23.7391 14.1131 23.7069 14.0624 23.6636 14.0222L22.798 13.214C22.8081 13.1168 22.8182 13.0186 22.8263 12.9203L23.8336 12.2965C23.8843 12.2659 23.9262 12.2226 23.9554 12.171C23.9845 12.1194 23.9998 12.0611 23.9998 12.0018C23.9998 11.9425 23.9845 11.8843 23.9554 11.8326C23.9262 11.781 23.8843 11.7378 23.8336 11.7071L23.8346 11.7072ZM17.0933 20.0651C16.9091 20.0246 16.7483 19.9128 16.6463 19.7541C16.5442 19.5955 16.509 19.4029 16.5485 19.2183C16.5879 19.0338 16.6988 18.8724 16.8568 18.7694C17.0148 18.6664 17.2072 18.6302 17.3919 18.6686C17.4848 18.687 17.5732 18.7237 17.6518 18.7766C17.7305 18.8295 17.7978 18.8975 17.8499 18.9766C17.902 19.0558 17.9378 19.1446 17.9552 19.2377C17.9727 19.3309 17.9715 19.4266 17.9516 19.5192C17.9317 19.6119 17.8936 19.6997 17.8394 19.7775C17.7853 19.8553 17.7162 19.9215 17.6362 19.9723C17.5562 20.0231 17.4669 20.0575 17.3735 20.0734C17.2801 20.0893 17.1845 20.0865 17.0922 20.0651H17.0933ZM16.7511 17.7501C16.6676 17.7321 16.5814 17.7308 16.4974 17.7462C16.4133 17.7617 16.3332 17.7935 16.2615 17.84C16.1899 17.8865 16.1281 17.9466 16.0797 18.017C16.0313 18.0874 15.9973 18.1667 15.9796 18.2503L15.6223 19.9193C14.5188 20.4205 13.2938 20.6991 12.003 20.6991C10.7266 20.7009 9.46534 20.423 8.30788 19.8848L7.95048 18.2159C7.93279 18.1323 7.89878 18.0531 7.85039 17.9827C7.80199 17.9124 7.74018 17.8523 7.6685 17.8059C7.59682 17.7595 7.51668 17.7278 7.43269 17.7125C7.3487 17.6972 7.26251 17.6986 7.17908 17.7167L5.70608 18.0326C5.43238 17.7507 5.17803 17.4506 4.94478 17.1343H12.1124C12.1934 17.1343 12.248 17.1202 12.248 17.0463V14.5094C12.248 14.4354 12.1944 14.4213 12.1124 14.4213H10.0158V12.8131H12.2835C12.49 12.8131 13.39 12.8718 13.6775 14.0223C13.7676 14.3757 13.965 15.5272 14.1007 15.8958C14.2353 16.3089 14.784 17.1343 15.3692 17.1343H18.9408C18.9843 17.1337 19.0276 17.1293 19.0704 17.1212C18.8227 17.4578 18.5514 17.7762 18.2585 18.0741L16.7511 17.7501ZM6.83688 20.0307C6.74458 20.0521 6.64895 20.0549 6.55555 20.039C6.46215 20.023 6.37285 19.9887 6.29286 19.9379C6.21288 19.8871 6.1438 19.8208 6.08965 19.7431C6.03551 19.6653 5.99738 19.5775 5.9775 19.4848C5.95761 19.3922 5.95636 19.2965 5.97381 19.2033C5.99127 19.1101 6.02709 19.0214 6.07919 18.9422C6.13128 18.8631 6.1986 18.795 6.27723 18.7422C6.35586 18.6893 6.44423 18.6526 6.53718 18.6342C6.72097 18.5979 6.91166 18.6353 7.06814 18.7383C7.22463 18.8413 7.33436 19.0018 7.37368 19.185C7.41301 19.3682 7.37877 19.5596 7.27835 19.7178C7.17793 19.876 7.01938 19.9883 6.83688 20.0307ZM4.11768 9.00022C4.15893 9.08633 4.18249 9.17985 4.18696 9.27524C4.19143 9.37062 4.17673 9.46594 4.14373 9.55554C4.11073 9.64514 4.06009 9.72721 3.99481 9.79688C3.92954 9.86656 3.85096 9.92243 3.76371 9.96119C3.67647 9.99995 3.58234 10.0208 3.4869 10.0225C3.39146 10.0242 3.29664 10.0068 3.20806 9.9712C3.11948 9.93562 3.03893 9.88261 2.97119 9.81533C2.90345 9.74805 2.84989 9.66786 2.81368 9.57951C2.74346 9.40765 2.74292 9.21519 2.81219 9.04294C2.88145 8.8707 3.01507 8.73222 3.18469 8.65688C3.35432 8.58153 3.54662 8.57525 3.7208 8.63937C3.89498 8.70349 4.03734 8.83286 4.11768 9.00022ZM3.28248 10.9822L4.81718 10.2995C4.89525 10.2649 4.96572 10.2151 5.02457 10.1532C5.08341 10.0913 5.12947 10.0183 5.16012 9.93858C5.19077 9.85882 5.2054 9.7738 5.20318 9.68838C5.20096 9.60296 5.18193 9.51882 5.14718 9.44076L4.83138 8.72583H6.07458V14.3302H3.56688C3.25765 13.2425 3.16142 12.1053 3.28348 10.9811L3.28248 10.9822ZM10.0168 10.4383V8.78655H12.9769C13.1299 8.78655 14.0561 8.96381 14.0561 9.65654C14.0561 10.2317 13.3454 10.4383 12.7613 10.4383H10.0168ZM20.7742 11.925C20.7742 12.1438 20.7662 12.3614 20.7499 12.5762H19.8499C19.7599 12.5762 19.7234 12.6348 19.7234 12.724V13.1371C19.7234 14.1104 19.1747 14.3221 18.6938 14.3757C18.2362 14.4274 17.729 14.1843 17.6663 13.9038C17.3959 12.3847 16.9465 12.0596 16.2358 11.4996C17.1175 10.9396 18.0348 10.1132 18.0348 9.00732C18.0348 7.81332 17.2158 7.06087 16.6579 6.69125C15.8754 6.17478 15.0088 6.07154 14.7749 6.07154H5.46818C6.7544 4.63284 8.47923 3.65889 10.3752 3.30072L11.4726 4.45211C11.5314 4.51399 11.6018 4.56364 11.6798 4.59821C11.7579 4.63279 11.8419 4.65161 11.9273 4.65359C12.0126 4.65557 12.0974 4.64067 12.177 4.60975C12.2565 4.57883 12.3292 4.5325 12.3908 4.47341L13.6178 3.29872C14.8689 3.53344 16.0539 4.03761 17.0908 4.77627C18.1276 5.51492 18.9914 6.47037 19.6222 7.57634L18.7819 9.47518C18.7122 9.63289 18.7079 9.81176 18.7697 9.97269C18.8316 10.1336 18.9546 10.2635 19.1119 10.334L20.7297 11.053C20.758 11.3406 20.7722 11.6302 20.7722 11.925H20.7742ZM11.4736 2.3225C11.6104 2.19197 11.7934 2.12115 11.9824 2.12561C12.076 2.12782 12.1682 2.14845 12.2538 2.18632C12.3395 2.22418 12.4168 2.27855 12.4814 2.34631C12.546 2.41407 12.5966 2.49389 12.6304 2.58122C12.6642 2.66856 12.6804 2.76169 12.6782 2.85531C12.676 2.94892 12.6554 3.04118 12.6175 3.12682C12.5797 3.21246 12.5253 3.28981 12.4576 3.35444C12.3189 3.47417 12.1396 3.53599 11.9567 3.52712C11.7737 3.51825 11.6012 3.43937 11.4748 3.30679C11.3484 3.17422 11.2777 2.9981 11.2775 2.81488C11.2773 2.63167 11.3475 2.45538 11.4736 2.3225ZM19.8125 9.03473C19.8502 8.94909 19.9045 8.87175 19.9722 8.80715C20.0399 8.74254 20.1197 8.69194 20.207 8.65825C20.2942 8.62456 20.3873 8.60844 20.4808 8.61082C20.5744 8.6132 20.6665 8.63402 20.752 8.67211C20.8812 8.72914 20.9906 8.82323 21.0663 8.94247C21.142 9.06171 21.1807 9.20074 21.1774 9.34197C21.1741 9.4832 21.1289 9.62027 21.0477 9.73584C20.9665 9.85141 20.8529 9.94028 20.7211 9.99121C20.5894 10.0421 20.4456 10.0528 20.3078 10.0219C20.17 9.99104 20.0444 9.91994 19.947 9.81765C19.8496 9.71535 19.7848 9.58645 19.7606 9.44726C19.7365 9.30807 19.7542 9.16485 19.8115 9.03573L19.8125 9.03473Z" fill="black"/>
</g>
<defs>
<clipPath id="clip0_27_271">
<rect width="24" height="24" fill="white"/>
</clipPath>
</defs>
</svg>
