<svg xmlns="http://www.w3.org/2000/svg" class="icon icon-tabler icon-tabler-badges-filled"
    width="100" height="100" viewBox="0 0 24 24" stroke-width="1.5" fill="none" stroke="#000"
    stroke-linecap="round" stroke-linejoin="round">
    <path stroke="none" d="M0 0h24v24H0z" fill="none" />
    <path
        d="M16.486 12.143l-4.486 2.69l-4.486 -2.69a1 1 0 0 0 -1.514 .857v4a1 1 0 0 0 .486 .857l5 3a1 1 0 0 0 1.028 0l5 -3a1 1 0 0 0 .486 -.857v-4a1 1 0 0 0 -1.514 -.857z"
        stroke-width="1" fill="#FFF" />
    <path
        d="M16.486 3.143l-4.486 2.69l-4.486 -2.69a1 1 0 0 0 -1.514 .857v4a1 1 0 0 0 .486 .857l5 3a1 1 0 0 0 1.028 0l5 -3a1 1 0 0 0 .486 -.857v-4a1 1 0 0 0 -1.514 -.857z"
        stroke-width="1" fill="#FFF" />
</svg>
  